<?xml version="1.0" encoding="UTF-8" standalone="no"?>
<!-- Created with Inkscape (http://www.inkscape.org/) -->

<svg
   version="1.1"
   id="svg2"
   width="1228.8"
   height="691.20001"
   viewBox="0 0 1228.8 691.20001"
   sodipodi:docname="T2.pdf"
   xmlns:inkscape="http://www.inkscape.org/namespaces/inkscape"
   xmlns:sodipodi="http://sodipodi.sourceforge.net/DTD/sodipodi-0.dtd"
   xmlns="http://www.w3.org/2000/svg"
   xmlns:svg="http://www.w3.org/2000/svg">
  <defs
     id="defs6">
    <clipPath
       clipPathUnits="userSpaceOnUse"
       id="clipPath20">
      <path
         d="M 60.41,41.96 H 910.8 V 481.68 H 60.41 Z"
         id="path18" />
    </clipPath>
    <clipPath
       clipPathUnits="userSpaceOnUse"
       id="clipPath118">
      <path
         d="M 60.41,41.96 H 910.8 V 481.68 H 60.41 Z"
         id="path116" />
    </clipPath>
  </defs>
  <sodipodi:namedview
     id="namedview4"
     pagecolor="#ffffff"
     bordercolor="#111111"
     borderopacity="1"
     inkscape:showpageshadow="0"
     inkscape:pageopacity="0"
     inkscape:pagecheckerboard="1"
     inkscape:deskcolor="#d1d1d1" />
  <g
     id="g8"
     inkscape:groupmode="layer"
     inkscape:label="T2"
     transform="matrix(1.3333333,0,0,-1.3333333,0,691.2)">
    <path
       d="M 0,0 H 921.6 V 518.4 H 0 Z"
       style="fill:#ffffff;fill-opacity:1;fill-rule:nonzero;stroke:none"
       id="path10" />
    <path
       d="M 60.41,41.96 H 910.8 V 481.68 H 60.41 Z"
       style="fill:#ffffff;fill-opacity:1;fill-rule:nonzero;stroke:none"
       id="path12" />
    <g
       id="g14">
      <g
         id="g16"
         clip-path="url(#clipPath20)">
        <path
           d="M 99.064091,72.176358 V 61.947273 h 4.468679 4.46868 4.46868 4.46869 4.46868 4.46868 4.46868 4.46868 4.46868 4.46868 4.46868 4.46868 4.46868 4.46868 4.46869 4.46868 4.46868 4.46868 4.46868 4.46868 4.46868 4.46868 4.46868 4.46869 4.46868 4.46868 4.46868 4.46868 4.46868 4.46868 4.46868 4.46868 4.46868 4.46869 4.46868 4.46868 4.46868 4.46868 4.46868 4.46868 4.46868 4.46868 4.46868 4.46869 4.46868 4.46868 4.46868 4.46868 4.46868 4.46868 4.46868 4.46868 4.46868 4.46869 4.46868 4.46868 4.46868 4.46868 4.46868 4.46868 4.46868 4.46868 4.46869 4.46868 4.46868 4.46868 4.46868 4.46868 4.46868 4.46868 4.46868 4.46868 4.46869 4.46868 4.46868 4.46868 4.46868 4.46868 4.46868 4.46868 4.46868 4.46868 4.46869 4.46868 4.46868 4.46868 4.46868 4.46868 4.46868 4.46868 4.46868 4.46869 4.46868 4.46868 4.46868 4.46868 4.46868 4.46868 4.46868 4.46868 4.46869 4.46868 4.46868 4.46868 4.46868 4.46868 4.46868 4.46868 4.46868 4.46868 4.46868 4.46869 4.46868 4.46868 4.46868 4.46868 4.46868 4.46868 4.46868 4.46868 4.46869 4.46868 4.46868 4.46868 4.46868 4.46868 4.46868 4.46868 4.46868 4.46868 4.46869 4.46868 4.46868 4.46868 4.46868 4.46868 4.46868 4.46868 4.46868 4.46869 4.46868 4.46868 4.46868 4.46868 4.46868 4.46868 4.46868 4.46868 4.46868 4.46868 4.46869 4.46868 4.46868 4.46868 4.46868 4.46868 4.46868 4.46868 4.46869 4.46868 4.46868 4.46868 4.46868 4.46868 4.46868 4.46868 4.46868 4.46868 4.46869 4.46868 4.46868 4.46868 4.46868 v 4.400616 0 l -4.46868,0.360288 -4.46868,0.318484 -4.46868,0.419196 -4.46868,0.379292 -4.46869,0.403614 -4.46868,0.199147 -4.46868,0.03611 -4.46868,0.05093 -4.46868,0.262236 -4.46868,0.22537 -4.46868,0.718677 -4.46868,0.396774 -4.46868,0.824332 -4.46868,0.88856 -4.46869,0.841814 -4.46868,0.283899 -4.46868,0.377771 -4.46868,0.05093 -4.46868,-0.01824 -4.46868,0.486466 -4.46868,0.717157 -4.46868,0.981673 -4.46869,1.300156 -4.46868,1.466619 -4.46868,0.704615 -4.46868,0.863477 -4.46868,0.133398 -4.46868,0.348127 -4.46868,0.378531 -4.46868,0.709177 -4.46868,1.063764 -4.46868,1.677927 -4.46868,2.199738 -4.46869,2.047717 -4.46868,1.831848 -4.46868,1.446856 -4.46868,0.723618 -4.46868,0.492167 -4.46868,0.380431 -4.46868,1.318399 -4.46868,2.3662 -4.46868,3.021026 -4.46869,3.51168 -4.46868,4.40897 -4.46868,3.83282 -4.46868,3.49951 -4.46868,1.60762 -4.46868,1.39403 -4.46868,2.069 -4.46868,0.91707 -4.46868,2.76145 -4.46868,17.62831 -4.46869,-7.3312 -4.46868,5.7365 -4.46868,6.50914 -4.46868,5.67417 -4.46868,3.04687 -4.46868,1.35223 -4.46868,0.21663 -4.46868,0.8114 -4.46868,4.02627 -4.46869,7.76369 -4.46868,10.19602 -4.46868,9.94975 -4.46868,7.75989 -4.46868,5.49554 -4.46868,1.93295 -4.46868,0.74452 -4.46868,0.97863 -4.46868,1.4784 -4.46868,4.31814 -4.46868,9.51573 -4.46869,11.26321 -4.46868,12.18521 -4.46868,11.05874 -4.46868,9.79886 -4.46868,4.8715 -4.46868,3.31405 -4.46868,0.20865 -4.46868,3.21257 -4.46868,10.01626 -4.46869,26.13652 -4.46868,28.6783 -4.46868,12.15025 -4.46868,-3.59111 -4.46868,-5.7707 -4.46868,-1.48372 -4.46868,2.06596 -4.46868,0.84561 -4.46868,0.90757 -4.46869,13.68755 -4.46868,49.51691 -4.46868,30.56259 -4.46868,-13.41125 -4.46868,-33.53802 -4.46868,-25.6949 -4.46868,-22.68299 -4.46868,-18.14708 -4.46868,-10.2021 -4.46868,-5.34543 -4.46869,-0.63164 -4.46868,26.44664 -4.46868,22.85477 -4.46868,-4.93573 -4.46868,-36.35724 -4.46868,-37.53046 -4.46868,-32.85659 -4.46868,-21.87728 -4.46868,-14.45678 -4.46868,-3.05789 -4.46869,10.75165 -4.46868,35.78793 -4.46868,43.56986 -4.46868,-19.50614 -4.46868,-56.24306 -4.46868,-37.1086 -4.46868,-19.06833 -4.46868,-9.01786 -4.46868,-4.94485 -4.46869,-1.32106 -4.46868,7.2339 -4.46868,55.0516 -4.46868,137.57711 -4.46868,54.02089 -4.46868,-69.63835 -4.46868,-92.15336 -4.46868,-59.22075 -4.46868,-25.78574 -4.46868,-13.91938 -4.46869,-8.00503 -4.46868,-1.82082 -4.46868,20.0709 -4.46868,109.93938 -4.46868,27.58338 -4.46868,-54.46974 -4.46868,-62.96464 -4.46868,-35.8305 -4.46868,-16.53375 -4.46868,-9.48381 -4.46869,-6.188 -4.46868,-2.03859 -4.46868,5.3078 -4.46868,22.68945 -4.46868,22.37211 -4.46868,-18.98737 -4.46868,-23.66619 -4.46868,-14.991884 -4.46868,-6.784678 -4.46868,-4.006123 -4.46869,-0.745281 -4.46868,-0.359528 -4.46868,3.966977 -4.46868,31.842607 -4.46868,34.73518 -4.46868,-15.13023 -4.46868,-27.45681 -4.46868,-18.233348 -4.46868,-8.504411 -4.46869,-4.457244 -4.46868,-3.03281 -4.46868,-0.685613 -4.46868,1.265571 -4.46868,11.242302 -4.46868,64.366653 -4.46868,12.62987 -4.46868,-15.75351 -4.46868,-34.88075 -4.46868,-19.632691 -4.46868,-17.270679 -4.46869,-3.585025 -4.46868,-4.934589 -4.46868,-1.338921 -4.468679,-0.171403 z"
           style="fill:#1f77b4;fill-opacity:1;fill-rule:nonzero;stroke:#1f77b4;stroke-width:1;stroke-linecap:butt;stroke-linejoin:round;stroke-miterlimit:10;stroke-dasharray:none;stroke-opacity:1"
           id="path22" />
      </g>
    </g>
    <g
       id="g24">
      <path
         d="m 81.189367,41.96 v -3.5"
         style="fill:#000000;fill-opacity:1;fill-rule:nonzero;stroke:#000000;stroke-width:0.8;stroke-linecap:butt;stroke-linejoin:round;stroke-miterlimit:10;stroke-dasharray:none;stroke-opacity:1"
         id="path26" />
      <text
         xml:space="preserve"
         transform="matrix(1,0,0,-1,74.829992,27.36625)"
         style="font-variant:normal;font-weight:normal;font-size:10px;font-family:'DejaVu Sans';-inkscape-font-specification:DejaVuSans;writing-mode:lr-tb;fill:#000000;fill-opacity:1;fill-rule:nonzero;stroke:none"
         id="text30"><tspan
           x="0 6.3600001"
           y="0"
           sodipodi:role="line"
           id="tspan28">25</tspan></text>
      <path
         d="m 192.90639,41.96 v -3.5"
         style="fill:#000000;fill-opacity:1;fill-rule:nonzero;stroke:#000000;stroke-width:0.8;stroke-linecap:butt;stroke-linejoin:round;stroke-miterlimit:10;stroke-dasharray:none;stroke-opacity:1"
         id="path32" />
      <text
         xml:space="preserve"
         transform="matrix(1,0,0,-1,186.54702,27.36625)"
         style="font-variant:normal;font-weight:normal;font-size:10px;font-family:'DejaVu Sans';-inkscape-font-specification:DejaVuSans;writing-mode:lr-tb;fill:#000000;fill-opacity:1;fill-rule:nonzero;stroke:none"
         id="text36"><tspan
           x="0 6.3600001"
           y="0"
           sodipodi:role="line"
           id="tspan34">50</tspan></text>
      <path
         d="m 304.62342,41.96 v -3.5"
         style="fill:#000000;fill-opacity:1;fill-rule:nonzero;stroke:#000000;stroke-width:0.8;stroke-linecap:butt;stroke-linejoin:round;stroke-miterlimit:10;stroke-dasharray:none;stroke-opacity:1"
         id="path38" />
      <text
         xml:space="preserve"
         transform="matrix(1,0,0,-1,298.26404,27.36625)"
         style="font-variant:normal;font-weight:normal;font-size:10px;font-family:'DejaVu Sans';-inkscape-font-specification:DejaVuSans;writing-mode:lr-tb;fill:#000000;fill-opacity:1;fill-rule:nonzero;stroke:none"
         id="text42"><tspan
           x="0 6.3600001"
           y="0"
           sodipodi:role="line"
           id="tspan40">75</tspan></text>
      <path
         d="m 416.34044,41.96 v -3.5"
         style="fill:#000000;fill-opacity:1;fill-rule:nonzero;stroke:#000000;stroke-width:0.8;stroke-linecap:butt;stroke-linejoin:round;stroke-miterlimit:10;stroke-dasharray:none;stroke-opacity:1"
         id="path44" />
      <text
         xml:space="preserve"
         transform="matrix(1,0,0,-1,406.80138,27.36625)"
         style="font-variant:normal;font-weight:normal;font-size:10px;font-family:'DejaVu Sans';-inkscape-font-specification:DejaVuSans;writing-mode:lr-tb;fill:#000000;fill-opacity:1;fill-rule:nonzero;stroke:none"
         id="text48"><tspan
           x="0 6.3600001 12.72"
           y="0"
           sodipodi:role="line"
           id="tspan46">100</tspan></text>
      <path
         d="m 528.05747,41.96 v -3.5"
         style="fill:#000000;fill-opacity:1;fill-rule:nonzero;stroke:#000000;stroke-width:0.8;stroke-linecap:butt;stroke-linejoin:round;stroke-miterlimit:10;stroke-dasharray:none;stroke-opacity:1"
         id="path50" />
      <text
         xml:space="preserve"
         transform="matrix(1,0,0,-1,518.51841,27.36625)"
         style="font-variant:normal;font-weight:normal;font-size:10px;font-family:'DejaVu Sans';-inkscape-font-specification:DejaVuSans;writing-mode:lr-tb;fill:#000000;fill-opacity:1;fill-rule:nonzero;stroke:none"
         id="text54"><tspan
           x="0 6.3600001 12.72"
           y="0"
           sodipodi:role="line"
           id="tspan52">125</tspan></text>
      <path
         d="m 639.7745,41.96 v -3.5"
         style="fill:#000000;fill-opacity:1;fill-rule:nonzero;stroke:#000000;stroke-width:0.8;stroke-linecap:butt;stroke-linejoin:round;stroke-miterlimit:10;stroke-dasharray:none;stroke-opacity:1"
         id="path56" />
      <text
         xml:space="preserve"
         transform="matrix(1,0,0,-1,630.23543,27.36625)"
         style="font-variant:normal;font-weight:normal;font-size:10px;font-family:'DejaVu Sans';-inkscape-font-specification:DejaVuSans;writing-mode:lr-tb;fill:#000000;fill-opacity:1;fill-rule:nonzero;stroke:none"
         id="text60"><tspan
           x="0 6.3600001 12.72"
           y="0"
           sodipodi:role="line"
           id="tspan58">150</tspan></text>
      <path
         d="m 751.49152,41.96 v -3.5"
         style="fill:#000000;fill-opacity:1;fill-rule:nonzero;stroke:#000000;stroke-width:0.8;stroke-linecap:butt;stroke-linejoin:round;stroke-miterlimit:10;stroke-dasharray:none;stroke-opacity:1"
         id="path62" />
      <text
         xml:space="preserve"
         transform="matrix(1,0,0,-1,741.95246,27.36625)"
         style="font-variant:normal;font-weight:normal;font-size:10px;font-family:'DejaVu Sans';-inkscape-font-specification:DejaVuSans;writing-mode:lr-tb;fill:#000000;fill-opacity:1;fill-rule:nonzero;stroke:none"
         id="text66"><tspan
           x="0 6.3600001 12.72"
           y="0"
           sodipodi:role="line"
           id="tspan64">175</tspan></text>
      <path
         d="m 863.20855,41.96 v -3.5"
         style="fill:#000000;fill-opacity:1;fill-rule:nonzero;stroke:#000000;stroke-width:0.8;stroke-linecap:butt;stroke-linejoin:round;stroke-miterlimit:10;stroke-dasharray:none;stroke-opacity:1"
         id="path68" />
      <text
         xml:space="preserve"
         transform="matrix(1,0,0,-1,853.66948,27.36625)"
         style="font-variant:normal;font-weight:normal;font-size:10px;font-family:'DejaVu Sans';-inkscape-font-specification:DejaVuSans;writing-mode:lr-tb;fill:#000000;fill-opacity:1;fill-rule:nonzero;stroke:none"
         id="text72"><tspan
           x="0 6.3600001 12.72"
           y="0"
           sodipodi:role="line"
           id="tspan70">200</tspan></text>
      <text
         xml:space="preserve"
         transform="matrix(1,0,0,-1,431.97219,13.694375)"
         style="font-variant:normal;font-weight:normal;font-size:10px;font-family:'DejaVu Sans';-inkscape-font-specification:DejaVuSans;writing-mode:lr-tb;fill:#000000;fill-opacity:1;fill-rule:nonzero;stroke:none"
         id="text76"><tspan
           x="0 5.75 9.8599997 15.99 22.34 32.080002 38.23 44.57 48.490002 51.669998 54.450001 60.599998 66.940002 73.290001 77.209999 83.550003 86.730003 90.629997 96.980003 103.33"
           y="0"
           sodipodi:role="line"
           id="tspan74">Fragment length (bp)</tspan></text>
      <path
         d="m 60.41,61.947273 h -3.5"
         style="fill:#000000;fill-opacity:1;fill-rule:nonzero;stroke:#000000;stroke-width:0.8;stroke-linecap:butt;stroke-linejoin:round;stroke-miterlimit:10;stroke-dasharray:none;stroke-opacity:1"
         id="path78" />
      <text
         xml:space="preserve"
         transform="matrix(1,0,0,-1,24.785,58.150398)"
         style="font-variant:normal;font-weight:normal;font-size:10px;font-family:'DejaVu Sans';-inkscape-font-specification:DejaVuSans;writing-mode:lr-tb;fill:#000000;fill-opacity:1;fill-rule:nonzero;stroke:none"
         id="text82"><tspan
           x="0 6.3600001 9.54 15.9 22.26"
           y="0"
           sodipodi:role="line"
           id="tspan80">0.000</tspan></text>
      <path
         d="m 60.41,157.47238 h -3.5"
         style="fill:#000000;fill-opacity:1;fill-rule:nonzero;stroke:#000000;stroke-width:0.8;stroke-linecap:butt;stroke-linejoin:round;stroke-miterlimit:10;stroke-dasharray:none;stroke-opacity:1"
         id="path84" />
      <text
         xml:space="preserve"
         transform="matrix(1,0,0,-1,24.785,153.67551)"
         style="font-variant:normal;font-weight:normal;font-size:10px;font-family:'DejaVu Sans';-inkscape-font-specification:DejaVuSans;writing-mode:lr-tb;fill:#000000;fill-opacity:1;fill-rule:nonzero;stroke:none"
         id="text88"><tspan
           x="0 6.3600001 9.54 15.9 22.26"
           y="0"
           sodipodi:role="line"
           id="tspan86">0.005</tspan></text>
      <path
         d="m 60.41,252.99749 h -3.5"
         style="fill:#000000;fill-opacity:1;fill-rule:nonzero;stroke:#000000;stroke-width:0.8;stroke-linecap:butt;stroke-linejoin:round;stroke-miterlimit:10;stroke-dasharray:none;stroke-opacity:1"
         id="path90" />
      <text
         xml:space="preserve"
         transform="matrix(1,0,0,-1,24.785,249.20062)"
         style="font-variant:normal;font-weight:normal;font-size:10px;font-family:'DejaVu Sans';-inkscape-font-specification:DejaVuSans;writing-mode:lr-tb;fill:#000000;fill-opacity:1;fill-rule:nonzero;stroke:none"
         id="text94"><tspan
           x="0 6.3600001 9.54 15.9 22.26"
           y="0"
           sodipodi:role="line"
           id="tspan92">0.010</tspan></text>
      <path
         d="m 60.41,348.5226 h -3.5"
         style="fill:#000000;fill-opacity:1;fill-rule:nonzero;stroke:#000000;stroke-width:0.8;stroke-linecap:butt;stroke-linejoin:round;stroke-miterlimit:10;stroke-dasharray:none;stroke-opacity:1"
         id="path96" />
      <text
         xml:space="preserve"
         transform="matrix(1,0,0,-1,24.785,344.72573)"
         style="font-variant:normal;font-weight:normal;font-size:10px;font-family:'DejaVu Sans';-inkscape-font-specification:DejaVuSans;writing-mode:lr-tb;fill:#000000;fill-opacity:1;fill-rule:nonzero;stroke:none"
         id="text100"><tspan
           x="0 6.3600001 9.54 15.9 22.26"
           y="0"
           sodipodi:role="line"
           id="tspan98">0.015</tspan></text>
      <path
         d="m 60.41,444.04771 h -3.5"
         style="fill:#000000;fill-opacity:1;fill-rule:nonzero;stroke:#000000;stroke-width:0.8;stroke-linecap:butt;stroke-linejoin:round;stroke-miterlimit:10;stroke-dasharray:none;stroke-opacity:1"
         id="path102" />
      <text
         xml:space="preserve"
         transform="matrix(1,0,0,-1,24.785,440.25084)"
         style="font-variant:normal;font-weight:normal;font-size:10px;font-family:'DejaVu Sans';-inkscape-font-specification:DejaVuSans;writing-mode:lr-tb;fill:#000000;fill-opacity:1;fill-rule:nonzero;stroke:none"
         id="text106"><tspan
           x="0 6.3600001 9.54 15.9 22.26"
           y="0"
           sodipodi:role="line"
           id="tspan104">0.020</tspan></text>
      <text
         xml:space="preserve"
         transform="matrix(0,1,1,0,18.706875,235.5075)"
         style="font-variant:normal;font-weight:normal;font-size:10px;font-family:'DejaVu Sans';-inkscape-font-specification:DejaVuSans;writing-mode:lr-tb;fill:#000000;fill-opacity:1;fill-rule:nonzero;stroke:none"
         id="text110"><tspan
           x="0 5.75 9.8599997 16.01 22.360001 28.700001 34.849998 41.189999 46.689999"
           y="0"
           sodipodi:role="line"
           id="tspan108">Frequency</tspan></text>
    </g>
    <g
       id="g112">
      <g
         id="g114"
         clip-path="url(#clipPath118)">
        <path
           d="m 99.064091,61.947273 4.468679,8.761061 4.46868,1.175981 8.93737,7.291084 4.46868,8.731662 4.46868,26.724179 4.46868,30.78131 4.46868,11.40702 4.46868,-9.73125 4.46868,-58.652068 4.46868,-7.408682 4.46868,-1.734573 4.46868,0.382194 4.46868,1.322979 4.46869,4.792124 4.46868,10.142839 4.46868,14.523367 4.46868,27.92956 4.46868,7.20289 4.46868,-28.98794 4.46868,-27.723765 4.46868,-4.086535 4.46868,-0.440993 4.46869,0.764388 4.46868,3.910138 4.46868,8.437666 4.46868,10.936621 4.46868,24.25462 4.46868,15.17016 4.46868,-18.9333 4.46868,-21.05007 4.46868,-5.8505 4.46868,3.64554 4.46869,4.88032 4.46868,9.67245 4.46868,17.75732 4.46868,37.7196 4.46868,57.74068 4.46868,41.24755 4.46868,-20.13868 4.46868,-102.86897 4.46868,-17.31633 4.46868,4.14534 4.46869,6.3209 4.46868,15.78755 4.46868,31.5163 4.46868,70.14728 4.46868,80.34893 4.46868,65.50216 4.46868,-64.32618 4.46868,-132.6507 4.46868,-53.38955 4.46868,-3.55734 4.46869,0.20579 4.46868,9.58425 4.46868,7.64388 4.46868,21.34406 4.46868,42.77632 4.46868,55.00653 4.46868,8.96686 4.46868,-49.74401 4.46868,-34.98545 4.46869,-9.79004 4.46868,5.46831 4.46868,18.9333 4.46868,21.96145 4.46868,33.66247 4.46868,36.51422 4.46868,31.2517 4.46868,7.40868 4.46868,-23.63722 4.46868,-29.34073 4.46869,6.37969 4.46868,9.61365 4.46868,7.90848 4.46868,14.72916 4.46868,36.22023 4.46868,22.78464 4.46868,36.13202 4.46868,20.52088 4.46868,-44.0699 4.46868,-48.74443 4.46869,-16.96353 4.46868,-4.88032 4.46868,10.43683 4.46868,-0.61739 4.46868,0.3234 4.46868,8.93745 4.46868,2.14617 4.46868,-13.78838 4.46868,-37.6314 4.46869,-23.66663 4.46868,-15.78755 4.46868,2.44016 4.46868,-1.02898 4.46868,-3.29275 4.46868,-5.9387 4.46868,-8.32007 4.46868,-13.81778 4.46868,-9.43725 4.46869,-14.58217 4.46868,-10.28984 4.46868,-4.40993 4.46868,-2.32256 4.46868,1.23478 4.46868,0.88199 4.46868,-6.20331 4.46868,-2.49896 4.46868,-6.96769 4.46868,-8.84925 4.46868,-11.55402 4.46869,-8.76106 4.46868,-3.23395 4.46868,-3.73374 4.46868,1.58757 4.46868,-0.38219 4.46868,-2.93995 4.46868,-7.26169 4.46868,-3.91014 4.46868,-7.64388 4.46869,3.76314 4.46868,-19.10969 4.46868,-2.55776 4.46868,0.1176 4.46868,-0.64679 4.46868,-1.85217 4.46868,-2.52836 4.46868,-4.02774 4.46868,-1.44058 4.46868,-6.96769 4.46869,-1.910965 4.46868,-3.233949 4.46868,-2.322563 4.46868,-0.940785 4.46868,-1.675774 4.46868,1.440578 4.46868,-0.734989 4.46868,-1.940369 4.46868,-2.851755 4.46869,-2.675357 4.46868,-0.587991 4.46868,-2.998752 4.46868,-1.175982 4.46868,1.087783 4.46868,-1.146582 4.46868,-0.117598 4.46868,0.940785 4.46868,-2.645958 4.46868,0.64679 4.46868,-2.116766 4.46869,-1.440578 4.46868,-0.440993 4.46868,-1.763972 4.46868,0.764388 8.93736,-1.087782 4.46868,0.352794 4.46868,0.558591 4.46869,-0.911385 4.46868,-1.822771 4.46868,-0.823187 h 4.46868 l 4.46868,-2.146166 4.46868,1.322979 4.46868,-0.764388 4.46868,-0.323395 4.46868,0.705589 4.46868,-0.470393 4.46869,0.176397 4.46868,-0.411593 4.46868,-0.293995 4.46868,-0.558592 4.46868,-1.058383 v 0"
           style="fill:none;stroke:#ff7f0e;stroke-width:3;stroke-linecap:square;stroke-linejoin:round;stroke-miterlimit:10;stroke-dasharray:none;stroke-opacity:1"
           id="path120" />
      </g>
    </g>
    <g
       id="g122">
      <path
         d="M 60.41,41.96 V 481.68"
         style="fill:none;stroke:#000000;stroke-width:0.8;stroke-linecap:square;stroke-linejoin:miter;stroke-miterlimit:10;stroke-dasharray:none;stroke-opacity:1"
         id="path124" />
      <path
         d="M 910.8,41.96 V 481.68"
         style="fill:none;stroke:#000000;stroke-width:0.8;stroke-linecap:square;stroke-linejoin:miter;stroke-miterlimit:10;stroke-dasharray:none;stroke-opacity:1"
         id="path126" />
      <path
         d="M 60.41,41.96 H 910.8"
         style="fill:none;stroke:#000000;stroke-width:0.8;stroke-linecap:square;stroke-linejoin:miter;stroke-miterlimit:10;stroke-dasharray:none;stroke-opacity:1"
         id="path128" />
      <path
         d="M 60.41,481.68 H 910.8"
         style="fill:none;stroke:#000000;stroke-width:0.8;stroke-linecap:square;stroke-linejoin:miter;stroke-miterlimit:10;stroke-dasharray:none;stroke-opacity:1"
         id="path130" />
      <path
         d="M 823.25312,444.33625 H 903.8 c 1.33333,0 2,0.66667 2,2 V 474.68 c 0,1.33333 -0.66667,2 -2,2 h -80.54688 c -1.33333,0 -2,-0.66667 -2,-2 v -28.34375 c 0,-1.33333 0.66667,-2 2,-2 z"
         style="fill:#ffffff;fill-opacity:0.8;fill-rule:nonzero;stroke:#cccccc;stroke-width:1;stroke-linecap:butt;stroke-linejoin:miter;stroke-miterlimit:10;stroke-dasharray:none;stroke-opacity:0.8"
         id="path132" />
      <path
         d="m 825.25312,468.58625 h 20"
         style="fill:none;stroke:#ff7f0e;stroke-width:3;stroke-linecap:square;stroke-linejoin:round;stroke-miterlimit:10;stroke-dasharray:none;stroke-opacity:1"
         id="path134" />
      <text
         xml:space="preserve"
         transform="matrix(1,0,0,-1,853.25312,465.08625)"
         style="font-variant:normal;font-weight:normal;font-size:10px;font-family:'DejaVu Sans';-inkscape-font-specification:DejaVuSans;writing-mode:lr-tb;fill:#000000;fill-opacity:1;fill-rule:nonzero;stroke:none"
         id="text138"><tspan
           x="0 7.6999998 13.83 23.57 29.700001 36.049999 42.200001"
           y="0"
           sodipodi:role="line"
           id="tspan136">Damaged</tspan></text>
      <path
         d="m 825.25312,450.41437 h 20 v 7 h -20 z"
         style="fill:#1f77b4;fill-opacity:1;fill-rule:nonzero;stroke:#1f77b4;stroke-width:1;stroke-linecap:butt;stroke-linejoin:miter;stroke-miterlimit:10;stroke-dasharray:none;stroke-opacity:1"
         id="path140" />
      <text
         xml:space="preserve"
         transform="matrix(1,0,0,-1,853.25312,450.41437)"
         style="font-variant:normal;font-weight:normal;font-size:10px;font-family:'DejaVu Sans';-inkscape-font-specification:DejaVuSans;writing-mode:lr-tb;fill:#000000;fill-opacity:1;fill-rule:nonzero;stroke:none"
         id="text144"><tspan
           x="0 6.8400002 9.6199999"
           y="0"
           sodipodi:role="line"
           id="tspan142">All</tspan></text>
      <text
         xml:space="preserve"
         transform="matrix(1,0,0,-1,204.925,498.907)"
         style="font-variant:normal;font-weight:normal;font-size:12px;font-family:'DejaVu Sans';-inkscape-font-specification:DejaVuSans;writing-mode:lr-tb;fill:#000000;fill-opacity:1;fill-rule:nonzero;stroke:none"
         id="text148"><tspan
           x="0 6.9000001 11.832 19.188 26.808001 38.495998 45.875999 53.484001 58.188 62.004002 65.339996 72.720001 80.328003 87.947998 92.652 100.26 104.076 111.684 115.02 121.272 125.976 133.32001 140.94 145.87199 153.228 164.916 168.73199 173.412 180.744 188.35201 193.284 200.90401 208.51199 214.76401 220.76401 228.384 235.728 239.064 242.39999 249.744 256.34399 263.724 271.34399 278.952 286.30801 289.64401 297.25201 303.504 309.504 316.884 321.81601 328.92001 333.62399 341.23199 346.164 353.508 361.12799 364.46399 371.84399 379.452 384.384 391.992 398.24399 404.24399 412.452 422.80801 431.784 440.80801 448.44 456.07199 463.70401 471.336 478.96799 486.60001 490.41599 495.12 502.224 506.92801"
           y="0"
           sodipodi:role="line"
           id="tspan146">Fragment length histogram (Turdus_poliocephalus_erythropleurus_AMNH768697.txt)</tspan></text>
    </g>
  </g>
</svg>
